<svg xmlns="http://www.w3.org/2000/svg" viewBox="0 0 400 400" width="1200" height="1200"><defs><linearGradient id="body" x1="0" x2="1"><stop offset="0" stop-color="#FBFBFA"/><stop offset=".5" stop-color="#E2E5E8"/><stop offset="1" stop-color="#B9BFC6"/></linearGradient><linearGradient id="rim" x1="0" x2="1"><stop offset="0" stop-color="#FBFBFA"/><stop offset="1" stop-color="#B9BFC6"/></linearGradient><linearGradient id="bg" x1="0" y1="0" x2="0" y2="1"><stop offset="0" stop-color="#E6EAEE"/><stop offset="1" stop-color="#D0D7DE"/></linearGradient></defs><rect width="400" height="400" fill="url(#bg)"/><g transform="translate(200 440) scale(2.7)"><g transform="scale(1.12 0.92)"><path d="M-75 -120 C-80 -50 -50 20 -28 55 L-28 95 L28 95 L28 55 C50 20 80 -50 75 -120 Z" fill="url(#body)"/><path d="M-75 -120 C-76 -100 -76 -85 -74 -78 Q-60 -70 -50 -78 Q-45 -48 -38 -75 Q-20 -66 -5 -80 Q2 -42 12 -78 Q30 -68 45 -80 Q52 -58 58 -78 Q70 -74 74 -78 C76 -90 76 -105 75 -120 Z" fill="#4E657D" opacity=".92"/><path d="M-62 -110 C-66 -50 -44 10 -26 50" fill="none" stroke="#fff" stroke-opacity=".16" stroke-width="9" stroke-linecap="round"/><rect x="-36" y="92" width="72" height="14" rx="5" fill="url(#body)"/><ellipse cx="0" cy="-120" rx="75" ry="17" fill="url(#rim)"/><ellipse cx="0" cy="-120" rx="62" ry="11.5" fill="#1b2026"/><circle cx="34.0" cy="-120.0" r="2.6" fill="#3b444e"/><circle cx="21.2" cy="-115.7" r="2.6" fill="#3b444e"/><circle cx="-7.6" cy="-114.6" r="2.6" fill="#3b444e"/><circle cx="-30.6" cy="-117.6" r="2.6" fill="#3b444e"/><circle cx="-30.6" cy="-122.4" r="2.6" fill="#3b444e"/><circle cx="-7.6" cy="-125.4" r="2.6" fill="#3b444e"/><circle cx="21.2" cy="-124.3" r="2.6" fill="#3b444e"/><circle cx="0" cy="-120" r="5" fill="#3b444e"/></g></g></svg>